<?xml version="1.0" encoding="UTF-8" standalone="no"?>
<!-- Created with Inkscape (http://www.inkscape.org/) -->

<svg
   xmlns:dc="http://purl.org/dc/elements/1.1/"
   xmlns:cc="http://creativecommons.org/ns#"
   xmlns:rdf="http://www.w3.org/1999/02/22-rdf-syntax-ns#"
   xmlns:svg="http://www.w3.org/2000/svg"
   xmlns="http://www.w3.org/2000/svg"
   xmlns:sodipodi="http://sodipodi.sourceforge.net/DTD/sodipodi-0.dtd"
   xmlns:inkscape="http://www.inkscape.org/namespaces/inkscape"
   width="235.258"
   height="61.491772"
   id="svg2"
   version="1.1"
   inkscape:version="0.48.4 r9939"
   sodipodi:docname="drawing.svg"
   inkscape:export-filename="/home/rabaah/Desktop/drawing.png"
   inkscape:export-xdpi="90"
   inkscape:export-ydpi="90">
  <defs
     id="defs4" />
  <sodipodi:namedview
     id="base"
     pagecolor="#ffffff"
     bordercolor="#666666"
     borderopacity="1.0"
     inkscape:pageopacity="0.0"
     inkscape:pageshadow="2"
     inkscape:zoom="5.3218169"
     inkscape:cx="117.629"
     inkscape:cy="30.745888"
     inkscape:document-units="px"
     inkscape:current-layer="layer1"
     showgrid="false"
     inkscape:window-width="1385"
     inkscape:window-height="876"
     inkscape:window-x="55"
     inkscape:window-y="24"
     inkscape:window-maximized="1"
     fit-margin-top="0"
     fit-margin-left="0"
     fit-margin-right="0"
     fit-margin-bottom="0" />
  <metadata
     id="metadata7">
    <rdf:RDF>
      <cc:Work
         rdf:about="">
        <dc:format>image/svg+xml</dc:format>
        <dc:type
           rdf:resource="http://purl.org/dc/dcmitype/StillImage" />
        <dc:title></dc:title>
      </cc:Work>
    </rdf:RDF>
  </metadata>
  <g
     inkscape:label="Layer 1"
     inkscape:groupmode="layer"
     id="layer1"
     transform="translate(-249.66434,-483.13325)">
    <flowRoot
       xml:space="preserve"
       id="flowRoot2985"
       style="font-size:40px;font-style:normal;font-variant:normal;font-weight:normal;font-stretch:normal;line-height:125%;letter-spacing:0px;word-spacing:0px;fill:#000000;fill-opacity:1;stroke:none;font-family:Montserrat;-inkscape-font-specification:Montserrat"><flowRegion
         id="flowRegion2987"><rect
           id="rect2989"
           width="669.20105"
           height="84.67025"
           x="28.563459"
           y="265.84695"
           style="font-style:normal;font-variant:normal;font-weight:normal;font-stretch:normal;font-family:Montserrat;-inkscape-font-specification:Montserrat" /></flowRegion><flowPara
         id="flowPara2991" /></flowRoot>    <flowRoot
       xml:space="preserve"
       id="flowRoot2993"
       style="font-size:40px;font-style:normal;font-variant:normal;font-weight:bold;font-stretch:normal;line-height:125%;letter-spacing:0px;word-spacing:0px;fill:#ffd42a;fill-opacity:1;stroke:none;font-family:Montserrat;-inkscape-font-specification:Montserrat Bold"
       transform="translate(219.32656,197.90396)"><flowRegion
         id="flowRegion2995"><rect
           id="rect2997"
           width="470.27695"
           height="88.750748"
           x="89.770874"
           y="276.04819"
           style="font-style:normal;font-variant:normal;font-weight:bold;font-stretch:normal;fill:#ffd42a;font-family:Montserrat;-inkscape-font-specification:Montserrat Bold" /></flowRegion><flowPara
         id="flowPara2999"
         style="line-height:125%;letter-spacing:-1.66000009px;fill:#ffd42a">haveeru</flowPara></flowRoot>    <flowRoot
       xml:space="preserve"
       id="flowRoot3001"
       style="font-size:40px;font-style:normal;font-variant:normal;font-weight:bold;font-stretch:normal;line-height:125%;letter-spacing:0px;word-spacing:0px;fill:#ffd42a;fill-opacity:1;stroke:none;font-family:Montserrat;-inkscape-font-specification:Montserrat Bold"
       transform="translate(107.11296,136.69654)"><flowRegion
         id="flowRegion3003"><rect
           id="rect3005"
           width="225.4473"
           height="47.945805"
           x="201.98447"
           y="367.85928"
           style="font-style:normal;font-variant:normal;font-weight:bold;font-stretch:normal;fill:#ffd42a;font-family:Montserrat;-inkscape-font-specification:Montserrat Bold" /></flowRegion><flowPara
         id="flowPara3007"
         style="letter-spacing:-1.65999997px;fill:#ffd42a">examiner</flowPara></flowRoot>    <flowRoot
       xml:space="preserve"
       id="flowRoot3009"
       style="font-size:40px;font-style:normal;font-weight:normal;line-height:125%;letter-spacing:0px;word-spacing:0px;fill:#000000;fill-opacity:1;stroke:none;font-family:Sans"><flowRegion
         id="flowRegion3011"><rect
           id="rect3013"
           width="477.41782"
           height="89.770874"
           x="151.99841"
           y="370.91968" /></flowRegion><flowPara
         id="flowPara3015" /></flowRoot>    <flowRoot
       xml:space="preserve"
       id="flowRoot3006"
       style="font-size:40px;font-style:normal;font-weight:normal;line-height:125%;letter-spacing:0px;word-spacing:0px;fill:#000000;fill-opacity:1;stroke:none;font-family:Sans"><flowRegion
         id="flowRegion3008"><rect
           id="rect3010"
           width="283.59433"
           height="106.09285"
           x="171.38075"
           y="395.40262" /></flowRegion><flowPara
         id="flowPara3012" /></flowRoot>    <path
       sodipodi:type="arc"
       style="fill:#ffd42a;fill-opacity:0.95686275;stroke:none"
       id="path3048"
       sodipodi:cx="384.58658"
       sodipodi:cy="320.93362"
       sodipodi:rx="19.382347"
       sodipodi:ry="19.382347"
       d="m 403.96893,320.93362 c 0,10.70458 -8.67778,19.38235 -19.38235,19.38235 -10.70458,0 -19.38235,-8.67777 -19.38235,-19.38235 0,-10.70457 8.67777,-19.38234 19.38235,-19.38234 10.70457,0 19.38235,8.67777 19.38235,19.38234 z"
       transform="matrix(0.86603349,0,0,0.87009002,-52.249075,220.75649)" />
    <path
       style="fill:#ffd42a;fill-opacity:0.95686275;stroke:none"
       id="path3050"
       d="m 253.1175,527.79739 c 1.32463,-1.90324 2.84572,-3.6028 4.61805,-5.08987 5.11446,-3.99657 10.33677,-7.60767 16.68173,-7.94244 1.95703,-0.0542 3.91532,-0.0154 5.87279,-0.006 2.04932,0.19479 3.91621,0.87189 5.67979,1.9061 1.37183,1.21624 2.9949,2.00418 4.67219,2.69305 1.66219,0.64851 3.31909,1.18555 5.08826,1.44345 1.74211,0.23806 3.22299,0.26107 4.92255,-0.16299 4.38009,-2.386 11.5176,-6.61633 -7.83245,4.59105 4.08407,-3.10504 1.36856,-1.07289 12.29169,-7.27335 0.20468,-0.1162 0.46401,-0.0948 0.67993,-0.18817 0.19919,-0.0863 0.7409,-0.45327 0.55256,-0.34519 -10.77629,6.18537 -13.96838,8.75313 -10.2305,5.79227 0.62088,-0.48876 0.33114,-0.22481 0.87052,-0.79042 0,0 12.03153,-5.2863 12.03153,-5.2863 l 0,0 c -0.40208,0.8426 -0.16307,0.4532 -0.70958,1.17289 -2.10847,1.66081 -29.28556,17.13136 -2.76155,1.685 0.18172,-0.10579 -0.34913,0.2347 -0.52369,0.35207 -1.4535,0.86454 -10.04515,7.04263 -14.83037,8.22809 -1.72331,0.22531 -3.46904,0.0333 -5.17878,-0.23679 -1.81266,-0.37973 -3.54682,-0.99631 -5.26084,-1.69672 -1.67707,-0.7709 -3.2652,-1.65381 -4.7224,-2.79997 -1.66363,-0.84036 -3.42942,-1.36704 -5.30902,-1.37735 -1.94048,-0.012 -3.88538,-0.0417 -5.82145,0.11431 -0.88036,0.10578 -1.74277,0.22159 -2.58715,0.51001 -0.28837,0.0984 -1.11009,0.49734 -0.84874,0.34014 8.81747,-5.30314 14.02958,-7.9056 9.39229,-5.56868 -1.84924,1.254 -3.52651,2.80859 -4.66846,4.75405 0,0 -12.0689,5.18044 -12.0689,5.18044 z"
       inkscape:connector-curvature="0" />
    <path
       style="fill:#ffd42a;fill-opacity:0.95686275;stroke:none"
       id="path3060"
       d="m 260.06803,536.39237 c -3.4448,1.98021 -6.88423,3.96993 -10.33441,5.94068 -0.33999,0.1942 0.66419,-0.41542 1.00346,-0.61088 4.06382,-2.34099 8.11265,-4.7089 12.2055,-6.99827 3.43225,-1.91987 -13.5936,7.91786 -10.2236,5.88968 1.87138,-1.12624 27.84626,-16.10312 1.63522,-0.97959 7.28943,-4.54704 24.15756,-13.97724 1.98264,-1.26359 -1.48995,0.85423 1.35931,-0.89482 1.65504,-1.12459 6.72813,-4.6949 9.23178,-7.11886 15.62831,-7.37483 1.73022,-0.1042 3.39754,-0.0682 5.082,0.32938 1.75018,0.69488 3.26039,1.84118 4.85099,2.82535 1.63999,0.80782 3.33989,1.48355 5.1304,1.86275 1.72421,0.2959 3.47857,0.30321 5.22247,0.31678 1.45785,-0.16437 2.68501,-0.89579 4.05075,-1.33052 0.68509,-0.10171 1.31374,-0.42779 1.92711,-0.73887 0.21495,-0.10896 0.82936,-0.49199 0.62032,-0.37197 -10.39719,5.96966 -13.99567,8.20051 -9.78465,5.60207 4.94007,-3.48688 10.23858,-6.26058 15.49973,-9.31326 0,0 -10.17939,8.2539 -10.17939,8.2539 l 0,0 c 19.51276,-11.38733 10.82861,-6.76936 6.89617,-3.66281 -5.07055,2.85866 -9.72821,6.63789 -15.32238,8.34262 -1.37522,0.55777 -2.80596,0.96546 -4.30645,0.92845 -1.80713,-0.0459 -3.62667,-0.11738 -5.38889,-0.56166 -1.85912,-0.52537 -3.67372,-1.24725 -5.34813,-2.21973 -1.45736,-0.93656 -2.92057,-1.98615 -4.6243,-2.40356 -1.60935,-0.26421 -3.24507,-0.13721 -4.86663,-0.05 -5.18478,0.5339 -12.12946,5.97701 7.12315,-5.28162 -0.73061,0.48544 -0.38295,0.20838 -1.03791,0.83751 -3.86252,2.85403 -8.31041,4.80774 -12.42971,7.27286 -3.48001,2.08254 6.99394,-4.10738 10.50111,-6.14343 0.24357,-0.14148 -0.47306,0.30604 -0.7096,0.45906 -3.97125,2.3507 -8.05724,4.51591 -11.91375,7.0521 -3.31207,2.17813 13.72231,-7.93722 10.27826,-5.97653 -4.05433,2.3081 -8.03866,4.73969 -12.10918,7.01885 -3.40667,1.90748 6.74498,-3.93569 10.11739,-5.90362 0.33003,-0.19257 -0.66012,0.38504 -0.99019,0.57757 -4.02828,2.34413 -8.0566,4.68824 -12.08489,7.03237 0,0 10.24404,-8.23263 10.24404,-8.23263 z"
       inkscape:connector-curvature="0" />
  </g>
</svg>
