<?xml version="1.0" encoding="UTF-8" standalone="no"?>
<!-- Created with Inkscape (http://www.inkscape.org/) -->

<svg
   xmlns:dc="http://purl.org/dc/elements/1.1/"
   xmlns:cc="http://creativecommons.org/ns#"
   xmlns:rdf="http://www.w3.org/1999/02/22-rdf-syntax-ns#"
   xmlns:svg="http://www.w3.org/2000/svg"
   xmlns="http://www.w3.org/2000/svg"
   xmlns:sodipodi="http://sodipodi.sourceforge.net/DTD/sodipodi-0.dtd"
   xmlns:inkscape="http://www.inkscape.org/namespaces/inkscape"
   width="122.42701"
   height="32.000011"
   id="svg2"
   version="1.1"
   inkscape:version="0.48.4 r9939"
   sodipodi:docname="drawing.svg"
   inkscape:export-filename="/home/rabaah/Desktop/drawing.png"
   inkscape:export-xdpi="90"
   inkscape:export-ydpi="90">
  <defs
     id="defs4" />
  <sodipodi:namedview
     id="base"
     pagecolor="#ffffff"
     bordercolor="#666666"
     borderopacity="1.0"
     inkscape:pageopacity="0.0"
     inkscape:pageshadow="2"
     inkscape:zoom="10.226502"
     inkscape:cx="61.213501"
     inkscape:cy="16.000007"
     inkscape:document-units="px"
     inkscape:current-layer="layer1"
     showgrid="false"
     inkscape:window-width="1385"
     inkscape:window-height="876"
     inkscape:window-x="55"
     inkscape:window-y="24"
     inkscape:window-maximized="1"
     fit-margin-top="0"
     fit-margin-left="0"
     fit-margin-right="0"
     fit-margin-bottom="0" />
  <metadata
     id="metadata7">
    <rdf:RDF>
      <cc:Work
         rdf:about="">
        <dc:format>image/svg+xml</dc:format>
        <dc:type
           rdf:resource="http://purl.org/dc/dcmitype/StillImage" />
        <dc:title></dc:title>
      </cc:Work>
    </rdf:RDF>
  </metadata>
  <g
     inkscape:label="Layer 1"
     inkscape:groupmode="layer"
     id="layer1"
     transform="translate(-249.66435,-512.62504)">
    <flowRoot
       xml:space="preserve"
       id="flowRoot2985"
       style="font-size:40px;font-style:normal;font-variant:normal;font-weight:normal;font-stretch:normal;line-height:125%;letter-spacing:0px;word-spacing:0px;fill:#000000;fill-opacity:1;stroke:none;font-family:Montserrat;-inkscape-font-specification:Montserrat"><flowRegion
         id="flowRegion2987"><rect
           id="rect2989"
           width="669.20105"
           height="84.67025"
           x="28.563459"
           y="265.84695"
           style="font-style:normal;font-variant:normal;font-weight:normal;font-stretch:normal;font-family:Montserrat;-inkscape-font-specification:Montserrat" /></flowRegion><flowPara
         id="flowPara2991" /></flowRoot>    <flowRoot
       xml:space="preserve"
       id="flowRoot2993"
       style="font-size:40px;font-style:normal;font-variant:normal;font-weight:bold;font-stretch:normal;line-height:125%;letter-spacing:0px;word-spacing:0px;fill:#ffd42a;fill-opacity:1;stroke:none;font-family:Montserrat;-inkscape-font-specification:Montserrat Bold"
       transform="matrix(0.52039469,0,0,0.52039469,233.87672,364.19323)"
       inkscape:export-filename="/home/rabaah/apps/haveeruexaminer/public/graphics/logo/logo32.png"
       inkscape:export-xdpi="90"
       inkscape:export-ydpi="90"><flowRegion
         id="flowRegion2995"><rect
           id="rect2997"
           width="470.27695"
           height="88.750748"
           x="89.770874"
           y="276.04819"
           style="font-style:normal;font-variant:normal;font-weight:bold;font-stretch:normal;fill:#ffd42a;font-family:Montserrat;-inkscape-font-specification:Montserrat Bold" /></flowRegion><flowPara
         id="flowPara2999"
         style="line-height:125%;letter-spacing:-1.66000009px;fill:#ffd42a">haveeru</flowPara></flowRoot>    <flowRoot
       xml:space="preserve"
       id="flowRoot3001"
       style="font-size:40px;font-style:normal;font-variant:normal;font-weight:bold;font-stretch:normal;line-height:125%;letter-spacing:0px;word-spacing:0px;fill:#ffd42a;fill-opacity:1;stroke:none;font-family:Montserrat;-inkscape-font-specification:Montserrat Bold"
       transform="matrix(0.52039469,0,0,0.52039469,175.48136,332.34122)"
       inkscape:export-filename="/home/rabaah/apps/haveeruexaminer/public/graphics/logo/logo32.png"
       inkscape:export-xdpi="90"
       inkscape:export-ydpi="90"><flowRegion
         id="flowRegion3003"><rect
           id="rect3005"
           width="225.4473"
           height="47.945805"
           x="201.98447"
           y="367.85928"
           style="font-style:normal;font-variant:normal;font-weight:bold;font-stretch:normal;fill:#ffd42a;font-family:Montserrat;-inkscape-font-specification:Montserrat Bold" /></flowRegion><flowPara
         id="flowPara3007"
         style="letter-spacing:-1.65999997px;fill:#ffd42a">examiner</flowPara></flowRoot>    <flowRoot
       xml:space="preserve"
       id="flowRoot3009"
       style="font-size:40px;font-style:normal;font-weight:normal;line-height:125%;letter-spacing:0px;word-spacing:0px;fill:#000000;fill-opacity:1;stroke:none;font-family:Sans"><flowRegion
         id="flowRegion3011"><rect
           id="rect3013"
           width="477.41782"
           height="89.770874"
           x="151.99841"
           y="370.91968" /></flowRegion><flowPara
         id="flowPara3015" /></flowRoot>    <flowRoot
       xml:space="preserve"
       id="flowRoot3006"
       style="font-size:40px;font-style:normal;font-weight:normal;line-height:125%;letter-spacing:0px;word-spacing:0px;fill:#000000;fill-opacity:1;stroke:none;font-family:Sans"><flowRegion
         id="flowRegion3008"><rect
           id="rect3010"
           width="283.59433"
           height="106.09285"
           x="171.38075"
           y="395.40262" /></flowRegion><flowPara
         id="flowPara3012" /></flowRoot>    <path
       sodipodi:type="arc"
       style="fill:#ffd42a;fill-opacity:0.95686275;stroke:none"
       id="path3048"
       sodipodi:cx="384.58658"
       sodipodi:cy="320.93362"
       sodipodi:rx="19.382347"
       sodipodi:ry="19.382347"
       d="m 403.96893,320.93362 c 0,10.70458 -8.67778,19.38235 -19.38235,19.38235 -10.70458,0 -19.38235,-8.67777 -19.38235,-19.38235 0,-10.70457 8.67777,-19.38234 19.38235,-19.38234 10.70457,0 19.38235,8.67777 19.38235,19.38234 z"
       transform="matrix(0.45067922,0,0,0.45279022,92.550205,376.08557)"
       inkscape:export-filename="/home/rabaah/apps/haveeruexaminer/public/graphics/logo/logo32.png"
       inkscape:export-xdpi="90"
       inkscape:export-ydpi="90" />
    <path
       style="fill:#ffd42a;fill-opacity:0.95686275;stroke:none"
       id="path3050"
       d="m 251.46134,535.86802 c 0.68934,-0.99044 1.48091,-1.87488 2.40321,-2.64874 2.66155,-2.0798 5.37921,-3.95899 8.68109,-4.1332 1.01843,-0.0282 2.03751,-0.008 3.05617,-0.003 1.06646,0.10137 2.03798,0.45372 2.95573,0.99193 0.71389,0.63292 1.55853,1.04296 2.43138,1.40144 0.865,0.33748 1.72724,0.61695 2.64791,0.75116 0.90659,0.12389 1.67722,0.13586 2.56167,-0.0848 2.27937,-1.24167 5.9937,-3.44311 -4.07597,2.38915 2.12533,-1.61584 0.71219,-0.55833 6.39653,-3.78501 0.10652,-0.0605 0.24147,-0.0494 0.35384,-0.0979 0.10365,-0.0449 0.38555,-0.23588 0.28754,-0.17964 -5.60792,3.21884 -7.26907,4.55508 -5.32389,3.01427 0.3231,-0.25435 0.17232,-0.11699 0.45301,-0.41133 0,0 6.26114,-2.75096 6.26114,-2.75096 l 0,0 c -0.20924,0.43848 -0.0849,0.23584 -0.36926,0.61036 -1.09723,0.86428 -15.24005,8.91507 -1.43709,0.87687 0.0946,-0.0551 -0.18169,0.12214 -0.27253,0.18321 -0.7564,0.4499 -5.22744,3.66495 -7.71764,4.28186 -0.89681,0.11725 -1.80527,0.0173 -2.69501,-0.12323 -0.9433,-0.19761 -1.84575,-0.51847 -2.73772,-0.88296 -0.87274,-0.40118 -1.69919,-0.86063 -2.45751,-1.45709 -0.86574,-0.43732 -1.78465,-0.7114 -2.76279,-0.71677 -1.00981,-0.006 -2.02193,-0.0217 -3.02945,0.0595 -0.45813,0.0551 -0.90692,0.11532 -1.34634,0.26541 -0.15006,0.0512 -0.57768,0.25881 -0.44168,0.17701 4.58857,-2.75973 7.30092,-4.11404 4.8877,-2.89792 -0.96233,0.65258 -1.83518,1.46157 -2.42944,2.47399 0,0 -6.2806,2.69587 -6.2806,2.69587 z"
       inkscape:connector-curvature="0"
       inkscape:export-filename="/home/rabaah/apps/haveeruexaminer/public/graphics/logo/logo32.png"
       inkscape:export-xdpi="90"
       inkscape:export-ydpi="90" />
    <path
       style="fill:#ffd42a;fill-opacity:0.95686275;stroke:none"
       id="path3060"
       d="m 255.07837,540.3408 c -1.79266,1.0305 -3.58252,2.06593 -5.37797,3.0915 -0.17693,0.10106 0.34564,-0.21618 0.52219,-0.3179 2.11479,-1.21824 4.22178,-2.45048 6.35168,-3.64186 1.78612,-0.99909 -7.07404,4.12041 -5.32031,3.06496 0.97386,-0.58609 14.49104,-8.37998 0.85096,-0.50977 3.79338,-2.36626 12.57147,-7.27368 1.03175,-0.65757 -0.77536,0.44453 0.70738,-0.46566 0.86128,-0.58523 3.50129,-2.4432 4.80417,-3.70462 8.13289,-3.83782 0.90039,-0.0542 1.76806,-0.0355 2.64465,0.17141 0.91078,0.36161 1.69669,0.95813 2.52442,1.47029 0.85344,0.42039 1.73807,0.77203 2.66984,0.96936 0.89726,0.15399 1.81023,0.1578 2.71774,0.16486 0.75866,-0.0855 1.39727,-0.46617 2.10799,-0.6924 0.35652,-0.0529 0.68366,-0.22262 1.00286,-0.3845 0.11186,-0.0567 0.4316,-0.25603 0.32281,-0.19357 -5.41064,3.10658 -7.28327,4.2675 -5.09188,2.91529 2.57078,-1.81456 5.3281,-3.25798 8.06598,-4.84658 0,0 -5.2973,4.29529 -5.2973,4.29529 l 0,0 c 10.15433,-5.92591 5.63515,-3.52274 3.58873,-1.90611 -2.63869,1.48763 -5.06251,3.45432 -7.97369,4.34146 -0.71566,0.29025 -1.4602,0.50241 -2.24105,0.48315 -0.94042,-0.0239 -1.8873,-0.0611 -2.80436,-0.29228 -0.96746,-0.2734 -1.91178,-0.64906 -2.78313,-1.15514 -0.7584,-0.48737 -1.51985,-1.03358 -2.40646,-1.2508 -0.8375,-0.13749 -1.68871,-0.0714 -2.53257,-0.026 -2.69813,0.27785 -6.31211,3.11041 3.70685,-2.74852 -0.38021,0.25262 -0.19929,0.10844 -0.54012,0.43584 -2.01004,1.48522 -4.3247,2.50192 -6.46836,3.78475 -1.81098,1.08375 3.63961,-2.13746 5.46472,-3.19701 0.12676,-0.0736 -0.24617,0.15927 -0.36927,0.2389 -2.06661,1.22328 -4.19294,2.35005 -6.19985,3.66987 -1.72358,1.13349 7.14102,-4.13048 5.34875,-3.11015 -2.10985,1.20113 -4.18327,2.46651 -6.30155,3.65257 -1.77281,0.99264 3.51005,-2.04811 5.26504,-3.07222 0.17174,-0.1002 -0.34353,0.20038 -0.51529,0.30057 -2.0963,1.21987 -4.19261,2.43974 -6.28892,3.65961 0,0 5.33095,-4.28422 5.33095,-4.28422 z"
       inkscape:connector-curvature="0"
       inkscape:export-filename="/home/rabaah/apps/haveeruexaminer/public/graphics/logo/logo32.png"
       inkscape:export-xdpi="90"
       inkscape:export-ydpi="90" />
  </g>
</svg>
