<?xml version="1.0" encoding="UTF-8" standalone="no"?>
<!-- Created with Inkscape (http://www.inkscape.org/) -->

<svg
   xmlns:dc="http://purl.org/dc/elements/1.1/"
   xmlns:cc="http://creativecommons.org/ns#"
   xmlns:rdf="http://www.w3.org/1999/02/22-rdf-syntax-ns#"
   xmlns:svg="http://www.w3.org/2000/svg"
   xmlns="http://www.w3.org/2000/svg"
   xmlns:sodipodi="http://sodipodi.sourceforge.net/DTD/sodipodi-0.dtd"
   xmlns:inkscape="http://www.inkscape.org/namespaces/inkscape"
   width="129.15523"
   height="32.000004"
   id="svg2"
   version="1.1"
   inkscape:version="0.48.5 r10040"
   inkscape:export-filename="/Users/umran/haveeruexaminer/public/graphics/logo/logo-alt300.png"
   inkscape:export-xdpi="300"
   inkscape:export-ydpi="300"
   sodipodi:docname="logo-alt.svg">
  <defs
     id="defs4" />
  <sodipodi:namedview
     id="base"
     pagecolor="#ffffff"
     bordercolor="#666666"
     borderopacity="1.0"
     inkscape:pageopacity="0.0"
     inkscape:pageshadow="2"
     inkscape:zoom="8.8962717"
     inkscape:cx="59.345892"
     inkscape:cy="9.0020463"
     inkscape:document-units="px"
     inkscape:current-layer="layer1"
     showgrid="false"
     fit-margin-top="0"
     fit-margin-left="0"
     fit-margin-right="0"
     fit-margin-bottom="0"
     inkscape:window-width="1276"
     inkscape:window-height="755"
     inkscape:window-x="4"
     inkscape:window-y="0"
     inkscape:window-maximized="1" />
  <metadata
     id="metadata7">
    <rdf:RDF>
      <cc:Work
         rdf:about="">
        <dc:format>image/svg+xml</dc:format>
        <dc:type
           rdf:resource="http://purl.org/dc/dcmitype/StillImage" />
        <dc:title />
      </cc:Work>
    </rdf:RDF>
  </metadata>
  <g
     inkscape:label="Layer 1"
     inkscape:groupmode="layer"
     id="layer1"
     transform="translate(-171.5,-223.12499)">
    <text
       xml:space="preserve"
       style="font-size:64px;font-style:normal;font-variant:normal;font-weight:bold;font-stretch:normal;line-height:125%;letter-spacing:-6.67999983px;word-spacing:0px;fill:#000000;fill-opacity:1;stroke:none;font-family:Montserrat;-inkscape-font-specification:Sans Bold"
       x="34.285713"
       y="180.93361"
       id="text2985"
       sodipodi:linespacing="125%"><tspan
         sodipodi:role="line"
         id="tspan2987"
         x="34.285713"
         y="180.93361" /></text>
    <text
       xml:space="preserve"
       style="font-size:56px;font-style:normal;font-variant:normal;font-weight:bold;font-stretch:normal;line-height:125%;letter-spacing:-6.67999983px;word-spacing:0px;fill:#000000;fill-opacity:1;stroke:none;font-family:Montserrat;-inkscape-font-specification:Sans Bold"
       x="68.458984"
       y="60.06218"
       id="text3826"
       sodipodi:linespacing="125%"
       transform="translate(171.5,188.375)"><tspan
         sodipodi:role="line"
         id="tspan3828"
         x="68.458984"
         y="60.06218" /></text>
    <path
       style="fill:none;stroke:#ffffff;stroke-width:1.91741275999999994;stroke-miterlimit:4;stroke-opacity:1;stroke-dasharray:none"
       d="m 202.5413,249.91158 0,4.25471 -30.08259,0 0,-30.08259 0,0 30.08259,0 0,8.1199"
       id="path3816"
       inkscape:connector-curvature="0" />
    <g
       style="font-size:26.84242057999999886px;font-style:normal;font-variant:normal;font-weight:bold;font-stretch:normal;line-height:125%;letter-spacing:-3.20191741000000007px;word-spacing:0px;fill:#ffffff;fill-opacity:1;stroke:none;font-family:Montserrat;-inkscape-font-specification:Sans Bold"
       id="text2999">
      <path
         d="m 191.23061,229.74357 4.18742,0 0,18.76285 -4.18742,0 0,-7.38166 -7.46219,0 0,7.38166 -4.18742,0 0,-18.76285 4.18742,0 0,7.83799 7.46219,0 0,-7.83799"
         style="letter-spacing:-1.67765129000000002px;fill:#ffffff;font-family:Montserrat;-inkscape-font-specification:Montserrat Bold"
         id="path3859" />
    </g>
    <g
       style="font-size:26.84242057999999886px;font-style:normal;font-variant:normal;font-weight:bold;font-stretch:normal;line-height:125%;letter-spacing:-3.20191741000000007px;word-spacing:0px;fill:#ffffff;fill-opacity:1;stroke:none;font-family:Montserrat;-inkscape-font-specification:Sans Bold"
       id="text3791">
      <path
         d="m 209.22798,246.19798 c -1.62845,1.53896 -3.54321,2.30845 -5.74428,2.30845 -2.18319,0 -3.99058,-0.67106 -5.42217,-2.01319 -1.4316,-1.36001 -2.14739,-3.17634 -2.14739,-5.44901 0,-2.27265 0.72474,-4.08003 2.17423,-5.42217 1.46738,-1.3421 3.19425,-2.01316 5.18059,-2.01318 1.98633,2e-5 3.66845,0.5995 5.04638,1.79845 1.39579,1.19897 2.09369,2.8453 2.0937,4.939 l 0,2.14739 -10.52222,0 c 0.12526,0.78739 0.53684,1.4316 1.23475,1.93266 0.69789,0.50106 1.48527,0.75159 2.36213,0.75159 1.41369,0 2.57686,-0.47422 3.48952,-1.42265 l 2.25476,2.44266 m -2.89898,-6.57639 c -0.0895,-0.85895 -0.4116,-1.52107 -0.96633,-1.98634 -0.55475,-0.46526 -1.23476,-0.6979 -2.04002,-0.69791 -0.78739,1e-5 -1.51213,0.2416 -2.17424,0.72475 -0.66212,0.48317 -1.04686,1.13634 -1.15422,1.9595 l 6.33481,0"
         style="fill:#ffffff"
         id="path3854" />
      <path
         d="m 213.18124,233.85046 2.46951,3.86531 2.55003,-3.86531 4.72426,0 -4.96585,7.05956 5.15375,7.38167 -4.80479,0 -2.81846,-3.97268 -2.73792,3.97268 -4.64374,0 5.04637,-7.35483 -4.77795,-7.0864 4.80479,0"
         style="fill:#ffffff"
         id="path3856" />
    </g>
    <g
       style="font-size:26.84324265000000054px;font-style:normal;font-variant:normal;font-weight:bold;font-stretch:normal;line-height:125%;letter-spacing:-3.20201540000000007px;word-spacing:0px;fill:#ffffff;fill-opacity:1;stroke:none;font-family:Montserrat;-inkscape-font-specification:Sans Bold"
       id="text3818">
      <path
         d="m 234.80694,248.29126 -3.78489,0 0,-1.74481 c -1.03795,1.30637 -2.32642,1.95956 -3.86543,1.95956 -1.52112,0 -2.80065,-0.43844 -3.83858,-1.31532 -1.03794,-0.89478 -1.55691,-2.07588 -1.55691,-3.54331 0,-1.48532 0.53686,-2.59484 1.61059,-3.32856 1.07373,-0.73371 2.54116,-1.10057 4.4023,-1.10058 l 3.00644,0 0,-0.0805 c -1e-5,-1.539 -0.81426,-2.3085 -2.44274,-2.30851 -0.69793,1e-5 -1.44059,0.14317 -2.22799,0.42949 -0.76951,0.26844 -1.42269,0.60845 -1.95955,1.02004 l -1.7985,-2.60379 c 1.89692,-1.37794 4.06227,-2.06692 6.49607,-2.06693 1.75374,1e-5 3.18538,0.43845 4.29491,1.31531 1.10951,0.8769 1.66427,2.2638 1.66428,4.16071 l 0,9.20723 m -4.05332,-5.50286 0,-0.69793 -2.52327,0 c -1.6106,1e-5 -2.4159,0.50108 -2.41589,1.50322 -1e-5,0.51898 0.1879,0.92162 0.56371,1.20795 0.39369,0.26843 0.94845,0.40265 1.66428,0.40265 0.71581,0 1.34215,-0.21475 1.87902,-0.64424 0.55476,-0.44738 0.83214,-1.03793 0.83215,-1.77165"
         style="fill:#ffffff"
         id="path3845" />
      <path
         d="m 248.53631,240.50672 0,7.78454 -4.05333,0 0,-7.89191 c -2e-5,-1.14531 -0.17897,-1.98639 -0.53687,-2.52327 -0.34002,-0.53685 -0.90373,-0.80528 -1.69112,-0.8053 -0.76952,2e-5 -1.45849,0.29529 -2.06693,0.88583 -0.59056,0.57267 -0.88584,1.4227 -0.88583,2.55011 l 0,7.78454 -4.02649,0 0,-14.44166 4.02649,0 0,1.63743 c 1.10951,-1.25267 2.38009,-1.87901 3.81174,-1.87902 0.91266,1e-5 1.73585,0.26844 2.46958,0.80529 0.7516,0.53688 1.3153,1.19007 1.69112,1.95956 0.55475,-0.87687 1.29741,-1.55689 2.22799,-2.04009 0.94845,-0.48316 1.89691,-0.72475 2.84539,-0.72476 1.70005,1e-5 3.06905,0.51003 4.10701,1.53006 1.03792,1.00216 1.55689,2.46064 1.55691,4.37545 l 0,8.77774 -4.05333,0 0,-7.89191 c -2e-5,-2.21903 -0.81426,-3.32855 -2.44273,-3.32857 -0.80532,2e-5 -1.50324,0.29529 -2.09378,0.88583 -0.59056,0.57267 -0.88584,1.4227 -0.88582,2.55011"
         style="fill:#ffffff"
         id="path3847" />
      <path
         d="m 262.4716,248.29126 -4.02648,0 0,-14.44166 4.02648,0 0,14.44166 m -3.70437,-16.26701 c -0.44738,-0.46526 -0.67108,-1.02897 -0.67108,-1.69112 0,-0.66211 0.2237,-1.21687 0.67108,-1.66428 0.46528,-0.46526 1.02899,-0.6979 1.69113,-0.69792 0.66213,2e-5 1.21689,0.23266 1.66428,0.69792 0.46528,0.44741 0.69792,1.00217 0.69792,1.66428 0,0.66215 -0.23264,1.22586 -0.69792,1.69112 -0.44739,0.44741 -1.00215,0.6711 -1.66428,0.67109 -0.66214,1e-5 -1.22585,-0.22368 -1.69113,-0.67109"
         style="fill:#ffffff"
         id="path3849" />
      <path
         d="m 267.13382,240.23829 0,8.05297 -4.02649,0 0,-14.44166 4.02649,0 0,1.61059 c 1.21688,-1.23478 2.58589,-1.85217 4.10701,-1.85218 1.52111,1e-5 2.79169,0.53688 3.81174,1.61059 1.03793,1.07374 1.5569,2.50538 1.55691,4.29492 l 0,8.77774 -4.02648,0 0,-8.16035 c -1e-5,-2.21903 -0.81426,-3.32855 -2.44274,-3.32856 -0.8053,1e-5 -1.51218,0.29529 -2.12061,0.88583 -0.59056,0.57266 -0.88584,1.4227 -0.88583,2.55011"
         style="fill:#ffffff"
         id="path3851" />
    </g>
    <g
       style="font-size:0.00132100000000000px;font-style:normal;font-variant:normal;font-weight:bold;font-stretch:normal;line-height:125%;letter-spacing:-0.00005538000000000px;word-spacing:0px;fill:#ffffff;fill-opacity:1;stroke:none;font-family:Montserrat;-inkscape-font-specification:Sans Bold"
       id="text3822">
      <path
         d="m 237.39459,248.50561 0,3.9e-4 -2e-4,0 0,-3.9e-4 c 0,-6e-5 -10e-6,-1e-4 -2e-5,-1.3e-4 -2e-5,-2e-5 -5e-5,-4e-5 -9e-5,-4e-5 -4e-5,0 -7e-5,2e-5 -1e-4,5e-5 -3e-5,3e-5 -4e-5,7e-5 -4e-5,1.2e-4 l 0,3.9e-4 -2e-4,0 0,-7.1e-4 2e-4,0 0,8e-5 c 5e-5,-7e-5 1.1e-4,-1e-4 1.8e-4,-1e-4 5e-5,0 9e-5,2e-5 1.3e-4,4e-5 3e-5,3e-5 6e-5,6e-5 8e-5,1e-4 3e-5,-4e-5 6e-5,-8e-5 1.1e-4,-1e-4 5e-5,-2e-5 9e-5,-4e-5 1.4e-4,-4e-5 8e-5,0 1.5e-4,3e-5 2e-4,8e-5 5e-5,5e-5 8e-5,1.2e-4 8e-5,2.1e-4 l 0,4.4e-4 -2e-4,0 0,-3.9e-4 c 0,-1.1e-4 -4e-5,-1.7e-4 -1.2e-4,-1.7e-4 -4e-5,0 -8e-5,2e-5 -1.1e-4,5e-5 -2e-5,3e-5 -4e-5,7e-5 -4e-5,1.2e-4"
         style="fill:#ffffff"
         id="path3838" />
      <path
         d="m 237.39538,248.506 -2e-4,0 0,-7.1e-4 2e-4,0 0,7.1e-4 m -1.8e-4,-8e-4 c -3e-5,-3e-5 -4e-5,-5e-5 -4e-5,-9e-5 0,-3e-5 1e-5,-6e-5 4e-5,-8e-5 2e-5,-2e-5 5e-5,-3e-5 8e-5,-3e-5 3e-5,0 6e-5,1e-5 8e-5,3e-5 2e-5,2e-5 4e-5,5e-5 4e-5,8e-5 0,4e-5 -2e-5,6e-5 -4e-5,9e-5 -2e-5,2e-5 -5e-5,3e-5 -8e-5,3e-5 -3e-5,0 -6e-5,-1e-5 -8e-5,-3e-5"
         style="fill:#ffffff"
         id="path3840" />
      <path
         d="m 237.39571,248.5056 0,4e-4 -2e-4,0 0,-7.1e-4 2e-4,0 0,8e-5 c 6e-5,-7e-5 1.3e-4,-1e-4 2e-4,-1e-4 8e-5,0 1.4e-4,3e-5 1.9e-4,8e-5 5e-5,6e-5 8e-5,1.3e-4 8e-5,2.1e-4 l 0,4.4e-4 -2e-4,0 0,-4e-4 c 0,-1.1e-4 -4e-5,-1.7e-4 -1.2e-4,-1.7e-4 -4e-5,0 -8e-5,2e-5 -1.1e-4,4e-5 -2e-5,3e-5 -4e-5,7e-5 -4e-5,1.3e-4"
         style="fill:#ffffff"
         id="path3842" />
    </g>
    <g
       style="font-size:26.84324265000000054px;font-style:normal;font-variant:normal;font-weight:bold;font-stretch:normal;line-height:125%;letter-spacing:-3.20201540000000007px;word-spacing:0px;fill:#ffffff;fill-opacity:1;stroke:none;font-family:Montserrat;-inkscape-font-specification:Sans Bold"
       id="text3834">
      <path
         d="m 290.33398,246.19747 c -1.6285,1.53901 -3.54332,2.30852 -5.74445,2.30852 -2.18326,0 -3.9907,-0.67108 -5.42234,-2.01324 -1.43164,-1.36006 -2.14746,-3.17645 -2.14746,-5.44918 0,-2.27272 0.72477,-4.08016 2.1743,-5.42234 1.46743,-1.34214 3.19434,-2.01322 5.18075,-2.01324 1.98639,2e-5 3.66856,0.59951 5.04653,1.7985 1.39583,1.19901 2.09376,2.84539 2.09377,4.93915 l 0,2.14746 -10.52255,0 c 0.12527,0.78741 0.53686,1.43165 1.23479,1.93272 0.69792,0.50107 1.48532,0.75161 2.36221,0.75161 1.41373,0 2.57694,-0.47423 3.48962,-1.42269 l 2.25483,2.44273 m -2.89907,-6.57659 c -0.0895,-0.85898 -0.41161,-1.52111 -0.96636,-1.9864 -0.55477,-0.46527 -1.2348,-0.69792 -2.04008,-0.69793 -0.78741,10e-6 -1.51218,0.2416 -2.17431,0.72477 -0.66213,0.48319 -1.04689,1.13637 -1.15426,1.95956 l 6.33501,0"
         style="fill:#ffffff"
         id="path3835" />
    </g>
    <g
       style="font-size:27.23583221000000165px;font-style:normal;font-variant:normal;font-weight:bold;font-stretch:normal;line-height:125%;letter-spacing:-3.24884557999999979px;word-spacing:0px;fill:#ffffff;fill-opacity:1;stroke:none;font-family:Montserrat;-inkscape-font-specification:Sans Bold"
       id="text3838">
      <path
         d="m 299.753,237.44825 c -1.21655,1e-5 -2.12441,0.43578 -2.72359,1.30732 -0.59919,0.8534 -0.89879,1.98822 -0.89878,3.40448 l 0,6.34595 -4.08537,0 0,-14.65288 4.08537,0 0,1.93374 c 0.52655,-0.59917 1.18021,-1.10757 1.96098,-1.5252 0.79891,-0.4176 1.6069,-0.63549 2.42399,-0.65366 l 0.0272,3.84025 -0.78983,0"
         style="fill:#ffffff"
         id="path3832" />
    </g>
  </g>
</svg>
