<?xml version="1.0" encoding="UTF-8" standalone="no"?>
<!-- Generator: Adobe Illustrator 18.0.0, SVG Export Plug-In . SVG Version: 6.00 Build 0)  -->

<svg
   xmlns:dc="http://purl.org/dc/elements/1.1/"
   xmlns:cc="http://creativecommons.org/ns#"
   xmlns:rdf="http://www.w3.org/1999/02/22-rdf-syntax-ns#"
   xmlns:svg="http://www.w3.org/2000/svg"
   xmlns="http://www.w3.org/2000/svg"
   xmlns:sodipodi="http://sodipodi.sourceforge.net/DTD/sodipodi-0.dtd"
   xmlns:inkscape="http://www.inkscape.org/namespaces/inkscape"
   version="1.1"
   id="Capa_1"
   x="0px"
   y="0px"
   viewBox="0 0 202.31058 64"
   xml:space="preserve"
   inkscape:version="0.48.5 r10040"
   width="100%"
   height="100%"
   sodipodi:docname="logo64-alt.svg"><metadata
     id="metadata67"><rdf:RDF><cc:Work
         rdf:about=""><dc:format>image/svg+xml</dc:format><dc:type
           rdf:resource="http://purl.org/dc/dcmitype/StillImage" /><dc:title /></cc:Work></rdf:RDF></metadata><defs
     id="defs65" /><sodipodi:namedview
     pagecolor="#ffffff"
     bordercolor="#666666"
     borderopacity="1"
     objecttolerance="10"
     gridtolerance="10"
     guidetolerance="10"
     inkscape:pageopacity="0"
     inkscape:pageshadow="2"
     inkscape:window-width="1235"
     inkscape:window-height="713"
     id="namedview63"
     showgrid="false"
     showguides="true"
     inkscape:guide-bbox="true"
     fit-margin-top="0"
     fit-margin-left="0"
     fit-margin-right="0"
     fit-margin-bottom="0"
     inkscape:zoom="5.476728"
     inkscape:cx="148.67886"
     inkscape:cy="32"
     inkscape:window-x="0"
     inkscape:window-y="0"
     inkscape:window-maximized="0"
     inkscape:current-layer="Capa_1" /><g
     id="g33"
     transform="translate(212.66495,-241.625)" /><g
     id="g35"
     transform="translate(212.66495,-241.625)" /><g
     id="g37"
     transform="translate(212.66495,-241.625)" /><g
     id="g39"
     transform="translate(212.66495,-241.625)" /><g
     id="g41"
     transform="translate(212.66495,-241.625)" /><g
     id="g43"
     transform="translate(212.66495,-241.625)" /><g
     id="g45"
     transform="translate(212.66495,-241.625)" /><g
     id="g47"
     transform="translate(212.66495,-241.625)" /><g
     id="g49"
     transform="translate(212.66495,-241.625)" /><g
     id="g51"
     transform="translate(212.66495,-241.625)" /><g
     id="g53"
     transform="translate(212.66495,-241.625)" /><g
     id="g55"
     transform="translate(212.66495,-241.625)" /><g
     id="g57"
     transform="translate(212.66495,-241.625)" /><g
     id="g59"
     transform="translate(212.66495,-241.625)" /><g
     id="g61"
     transform="translate(212.66495,-241.625)" /><g
     id="g3839"><path
       style="fill:#d13737;fill-opacity:1"
       d="m 111.8173,28.252458 c 0,1.048182 1.31042,1.530077 1.9842,0.727127 0.56145,-0.66894 1.08188,-1.387177 2.19964,-1.387177 2.09184,0 2.09184,2.516172 4.18369,2.516172 2.09153,0 2.09153,-2.516172 4.18322,-2.516172 2.09169,0 2.09169,2.516172 4.18337,2.516172 2.09153,0 2.09153,-2.516172 4.18307,-2.516172 2.09153,0 2.09153,2.516172 4.18306,2.516172 2.09122,0 2.09122,-2.516172 4.1826,-2.516172 1.11682,0 1.63709,0.717615 2.19808,1.386397 0.67362,0.803105 1.98436,0.321213 1.98436,-0.72713 V 22.308426 H 111.8173 v 5.944032 z"
       id="path15"
       inkscape:connector-curvature="0" /><path
       style="fill:#d13737;fill-opacity:1"
       d="m 149.79045,23.556451 c 1.29623,0 2.32538,-1.114642 2.19465,-2.404162 C 150.78076,9.2717231 140.74805,-6.7964805e-8 128.54986,-6.7964805e-8 116.35168,-6.7964805e-8 106.31897,9.2717231 105.11463,21.152289 c -0.13073,1.28952 0.89842,2.404162 2.19465,2.404162 h 42.48117 z"
       id="path17"
       inkscape:connector-curvature="0" /><path
       style="fill:#c8aff9;fill-opacity:0;stroke:none"
       d="m 107.28821,21.372409 c 1.09748,-10.762648 10.21414,-19.1883677 21.26165,-19.1883677 11.04751,0 20.16417,8.4257197 21.26165,19.1883677 h -42.5233 z"
       id="path19"
       inkscape:connector-curvature="0" /><g
       transform="scale(0.24832507,0.24832507)"
       style="font-size:132.09494019000001686px;font-style:normal;font-variant:normal;font-weight:bold;font-stretch:normal;line-height:125%;letter-spacing:-3px;word-spacing:0px;fill:#ef5734;fill-opacity:1;stroke:none;font-family:Montserrat;-inkscape-font-specification:Sans Bold"
       id="text3048"><path
         style="fill:#ef5734;fill-opacity:1"
         d="m 21.531475,229.72256 -19.8142409,0 0,-71.06707 19.8142409,0 0,71.06707 M 3.3023734,149.67303 C 1.1007823,147.38347 -7.7835768e-6,144.60948 -1.2207031e-7,141.35105 -7.7835768e-6,138.0928 1.1007823,135.36284 3.3023734,133.16116 c 2.2896324,-2.28954 5.0636233,-3.43437 8.3219816,-3.43447 3.258319,1e-4 5.988278,1.14493 8.189886,3.43447 2.289616,2.20168 3.434437,4.93164 3.434468,8.18989 -3.1e-5,3.25843 -1.144852,6.03242 -3.434468,8.32198 -2.201608,2.20166 -4.931567,3.30245 -8.189886,3.30237 -3.2583583,8e-5 -6.0323492,-1.10071 -8.3219816,-3.30237"
         id="path3034"
         inkscape:connector-curvature="0" /><path
         style="fill:#ef5734;fill-opacity:1"
         d="m 74.79979,176.09202 c -5.900281,5e-5 -10.303442,2.11357 -13.209494,6.34056 -2.906119,4.13901 -4.359162,9.64296 -4.359133,16.51186 l 0,30.77812 -19.814241,0 0,-71.06707 19.814241,0 0,9.37874 c 2.553804,-2.90603 5.724079,-5.3718 9.510836,-7.39732 3.874742,-2.02538 7.793555,-3.08214 11.756449,-3.17028 l 0.132095,18.62539 -3.830753,0"
         id="path3036"
         inkscape:connector-curvature="0" /><path
         style="fill:#ef5734;fill-opacity:1"
         d="m 134.43344,196.96302 0,-38.30753 19.94633,0 0,71.06707 -19.94633,0 0,-9.37874 c -4.9316,6.95701 -11.31618,10.4355 -19.15377,10.4355 -7.7496,0 -14.26628,-2.42173 -19.550052,-7.26522 -5.283809,-4.93153 -7.925705,-12.19675 -7.925696,-21.79566 l 0,-43.06295 19.946338,0 0,38.70381 c -3e-5,10.91987 4.00684,16.37979 12.02064,16.37978 3.9628,1e-5 7.39727,-1.409 10.3034,-4.22704 2.90604,-2.90607 4.35908,-7.08907 4.35914,-12.54902"
         id="path3038"
         inkscape:connector-curvature="0" /><path
         style="fill:#ef5734;fill-opacity:1"
         d="m 190.03405,229.72256 -19.81424,0 0,-98.01444 19.81424,0 0,50.32817 22.05986,-23.5129 24.96594,0 -27.07946,28.7967 28.13622,42.40247 -23.5129,0 -18.097,-27.21155 -6.47266,6.73684 0,20.47471"
         id="path3040"
         inkscape:connector-curvature="0" /><path
         style="fill:#ef5734;fill-opacity:1"
         d="m 304.47058,229.72256 -18.62539,0 0,-8.58617 c -5.10772,6.42863 -11.44827,9.64293 -19.02167,9.64293 -7.4854,0 -13.78192,-2.15755 -18.88958,-6.47265 -5.10768,-4.40315 -7.66151,-10.21532 -7.6615,-17.43653 -10e-6,-7.30922 2.64189,-12.76914 7.92569,-16.37977 5.28378,-3.61055 12.50496,-5.41585 21.66357,-5.4159 l 14.79464,0 0,-0.39628 c -5e-5,-7.57339 -4.00693,-11.36011 -12.02064,-11.36016 -3.43451,5e-5 -7.08913,0.70456 -10.96388,2.11351 -3.78675,1.32101 -7.00105,2.99421 -9.64293,5.01961 l -8.85036,-12.81321 c 9.33469,-6.7808 19.99033,-10.17124 31.96697,-10.17131 8.63015,7e-5 15.67521,2.15762 21.13519,6.47265 5.45986,4.31517 8.18982,11.14007 8.18989,20.47472 l 0,45.30856 m -19.94634,-27.07946 0,-3.43447 -12.41692,0 c -7.92573,3e-5 -11.88857,2.4658 -11.88855,7.39732 -2e-5,2.55386 0.92464,4.53528 2.774,5.94427 1.93736,1.32097 4.66732,1.98144 8.18988,1.98143 3.52249,10e-6 6.60471,-1.05675 9.24665,-3.17028 2.72991,-2.20156 4.09489,-5.10765 4.09494,-8.71827"
         id="path3042"
         inkscape:connector-curvature="0" /><path
         style="fill:#ef5734;fill-opacity:1"
         d="m 339.3488,190.09408 0,39.62848 -19.81424,0 0,-71.06707 19.81424,0 0,7.92569 c 5.98827,-6.07629 12.7251,-9.11448 20.21052,-9.11455 7.48533,7e-5 13.73781,2.64197 18.75748,7.9257 5.1076,5.28386 7.66143,12.32891 7.66151,21.13519 l 0,43.19504 -19.81424,0 0,-40.15686 c -6e-5,-10.91979 -4.00693,-16.37971 -12.02064,-16.37977 -3.96289,6e-5 -7.44138,1.4531 -10.4355,4.35913 -2.90612,2.81808 -4.35916,7.00108 -4.35913,12.54902"
         id="path3044"
         inkscape:connector-curvature="0" /><path
         style="fill:#ef5734;fill-opacity:1"
         d="m 429.30029,230.77932 c -8.36604,0 -15.85141,-3.56656 -22.45614,-10.69969 -6.60475,-7.13311 -9.90712,-15.98346 -9.90712,-26.55108 0,-10.56755 3.21431,-19.19774 9.64293,-25.89061 6.4286,-6.7808 13.95801,-10.17124 22.58824,-10.17131 8.63016,7e-5 15.67521,3.03826 21.13519,9.11455 l 0,-34.87306 19.81424,0 0,98.01444 -19.81424,0 0,-9.37874 c -5.54804,6.95701 -12.54907,10.4355 -21.0031,10.4355 m -12.41692,-36.4582 c -3e-5,5.72414 1.71721,10.43553 5.1517,14.13416 3.43444,3.61061 7.44131,5.41591 12.02064,5.41589 4.57925,2e-5 8.45403,-1.80528 11.62436,-5.41589 3.25828,-3.69863 4.88745,-8.41002 4.88751,-14.13416 -6e-5,-5.81214 -1.62923,-10.61158 -4.88751,-14.39835 -3.17033,-3.87473 -7.08915,-5.81212 -11.75645,-5.81218 -4.6674,6e-5 -8.67427,1.93745 -12.02064,5.81218 -3.34643,3.87483 -5.01964,8.67428 -5.01961,14.39835"
         id="path3046"
         inkscape:connector-curvature="0" /><path
         style="fill:#ef5734;fill-opacity:1"
         d="m 492.61402,231.04351 0,-72.52012 19.81424,0 0,74.10526 c -4e-5,7.74956 -2.37774,13.86996 -7.13313,18.3612 -4.66738,4.4912 -10.43552,6.73681 -17.30443,6.73684 -6.78088,-3e-5 -13.25353,-2.81805 -19.41796,-8.45407 l 9.11455,-14.66254 c 2.6419,3.0822 5.59201,4.62331 8.85036,4.62332 1.76126,-10e-6 3.2143,-0.70451 4.35913,-2.11352 1.14481,-1.32095 1.71722,-3.34641 1.71724,-6.07637 m 1.58514,-81.37048 c -2.2016,-2.28956 -3.30239,-5.06355 -3.30238,-8.32198 -10e-6,-3.25825 1.10078,-5.98821 3.30238,-8.18989 2.28962,-2.28954 5.06361,-3.43437 8.32198,-3.43447 3.25831,1e-4 5.98827,1.14493 8.18989,3.43447 2.2896,2.20168 3.43443,4.93164 3.43446,8.18989 -3e-5,3.25843 -1.14486,6.03242 -3.43446,8.32198 -2.20162,2.20166 -4.93158,3.30245 -8.18989,3.30237 -3.25837,8e-5 -6.03236,-1.10071 -8.32198,-3.30237"
         id="path3048"
         inkscape:connector-curvature="0" /><path
         style="fill:#ef5734;fill-opacity:1"
         d="m 548.09904,229.72256 -19.81424,0 0,-71.06707 19.81424,0 0,71.06707 m -18.2291,-80.04953 c -2.20159,-2.28956 -3.30238,-5.06355 -3.30237,-8.32198 -1e-5,-3.25825 1.10078,-5.98821 3.30237,-8.18989 2.28963,-2.28954 5.06362,-3.43437 8.32198,-3.43447 3.25832,1e-4 5.98828,1.14493 8.18989,3.43447 2.28961,2.20168 3.43443,4.93164 3.43447,8.18989 -4e-5,3.25843 -1.14486,6.03242 -3.43447,8.32198 -2.20161,2.20166 -4.93157,3.30245 -8.18989,3.30237 -3.25836,8e-5 -6.03235,-1.10071 -8.32198,-3.30237"
         id="path3050"
         inkscape:connector-curvature="0" /></g><g
       transform="scale(0.24832507,0.24832507)"
       style="font-size:132.09494018999998843px;font-style:normal;font-variant:normal;font-weight:bold;font-stretch:normal;line-height:125%;letter-spacing:-3px;word-spacing:0px;fill:#d13737;fill-opacity:1;stroke:none;font-family:Montserrat;-inkscape-font-specification:Sans Bold"
       id="text3052"><path
         style="fill:#d13737;fill-opacity:1"
         d="m 585.682,229.72256 -19.81425,0 0,-98.01444 19.81425,0 0,98.01444"
         id="path3053"
         inkscape:connector-curvature="0" /><path
         style="fill:#d13737;fill-opacity:1"
         d="m 661.93483,229.72256 -18.62539,0 0,-8.58617 c -5.10771,6.42863 -11.44826,9.64293 -19.02167,9.64293 -7.4854,0 -13.78192,-2.15755 -18.88957,-6.47265 -5.10768,-4.40315 -7.66152,-10.21532 -7.66151,-17.43653 -10e-6,-7.30922 2.64189,-12.76914 7.9257,-16.37977 5.28377,-3.61055 12.50496,-5.41585 21.66357,-5.4159 l 14.79463,0 0,-0.39628 c -5e-5,-7.57339 -4.00693,-11.36011 -12.02064,-11.36016 -3.4345,5e-5 -7.08913,0.70456 -10.96388,2.11351 -3.78675,1.32101 -7.00105,2.99421 -9.64293,5.01961 l -8.85036,-12.81321 c 9.33469,-6.7808 19.99034,-10.17124 31.96697,-10.17131 8.63016,7e-5 15.67521,2.15762 21.13519,6.47265 5.45986,4.31517 8.18982,11.14007 8.18989,20.47472 l 0,45.30856 m -19.94634,-27.07946 0,-3.43447 -12.41692,0 c -7.92573,3e-5 -11.88857,2.4658 -11.88854,7.39732 -3e-5,2.55386 0.92463,4.53528 2.77399,5.94427 1.93736,1.32097 4.66732,1.98144 8.18989,1.98143 3.52249,10e-6 6.6047,-1.05675 9.24664,-3.17028 2.72991,-2.20156 4.09489,-5.10765 4.09494,-8.71827"
         id="path3055"
         inkscape:connector-curvature="0" /><path
         style="fill:#d13737;fill-opacity:1"
         d="m 717.94824,157.46663 c 8.63015,7e-5 16.15955,3.39051 22.58824,10.17131 6.42854,6.69287 9.64285,15.32306 9.64293,25.89061 -8e-5,10.56762 -3.30245,19.41797 -9.90712,26.55108 -6.60481,7.13313 -14.13422,10.69969 -22.58824,10.69969 -8.36605,0 -15.32304,-3.47849 -20.871,-10.4355 l 0,9.37874 -19.81424,0 0,-98.01444 19.81424,0 0,34.87306 c 5.45989,-6.07629 12.50495,-9.11448 21.13519,-9.11455 m -21.39938,36.85449 c -3e-5,5.72414 1.58511,10.43553 4.75542,14.13416 3.25831,3.61061 7.17712,5.41591 11.75645,5.41589 4.57924,2e-5 8.58612,-1.80528 12.02064,-5.41589 3.43441,-3.69863 5.15164,-8.41002 5.1517,-14.13416 -6e-5,-5.72407 -1.67326,-10.52352 -5.0196,-14.39835 -3.34646,-3.87473 -7.35334,-5.81212 -12.02064,-5.81218 -4.6674,6e-5 -8.63024,1.93745 -11.88855,5.81218 -3.17031,3.78677 -4.75545,8.58621 -4.75542,14.39835"
         id="path3057"
         inkscape:connector-curvature="0" /><path
         style="fill:#d13737;fill-opacity:1"
         d="m 814.70057,207.66271 c -6e-5,6.95701 -2.59793,12.54903 -7.7936,16.77606 -5.10772,4.22704 -11.6244,6.34055 -19.55005,6.34055 -5.28383,0 -10.78778,-0.92466 -16.51187,-2.77399 -5.72413,-1.93739 -10.87582,-4.75541 -15.45511,-8.45408 l 8.71827,-12.41692 c 7.3973,5.72413 15.27895,8.58619 23.64499,8.58617 2.5538,2e-5 4.57925,-0.48433 6.07637,-1.45304 1.49703,-1.05675 2.24557,-2.42173 2.24561,-4.09495 -4e-5,-1.67318 -1.0568,-3.21428 -3.17027,-4.62332 -2.0255,-1.40899 -5.01965,-2.72993 -8.98246,-3.96285 -3.87481,-1.23285 -6.86896,-2.28961 -8.98246,-3.17028 -2.02547,-0.8806 -4.35915,-2.15751 -7.00103,-3.83075 -5.37187,-3.34637 -8.0578,-8.27791 -8.05779,-14.79463 -10e-6,-6.60469 2.64189,-11.97655 7.9257,-16.11559 5.28377,-4.1389 12.10867,-6.20839 20.47471,-6.20846 8.36597,7e-5 16.73198,2.8181 25.09804,8.45408 l -7.39732,13.20949 c -6.16447,-4.22698 -12.3289,-6.3405 -18.49329,-6.34055 -6.07639,5e-5 -9.11457,1.67325 -9.11455,5.0196 -2e-5,1.84938 0.96867,3.30243 2.90609,4.35914 1.93736,1.0568 5.15167,2.28969 9.64293,3.69865 4.49119,1.40906 7.66146,2.50985 9.51084,3.30238 1.93734,0.70454 4.22698,1.84937 6.86893,3.43447 4.93149,2.99418 7.39726,8.01379 7.39732,15.05882"
         id="path3059"
         inkscape:connector-curvature="0" /></g></g></svg>